<?xml version="1.0" encoding="UTF-8"?>
<svg xmlns="http://www.w3.org/2000/svg" xmlns:xlink="http://www.w3.org/1999/xlink" width="2836" height="2835" viewBox="0 0 2836 2835">
<path fill-rule="evenodd" fill="rgb(100%, 100%, 100%)" fill-opacity="1" d="M 1 0.351562 L 2835.640625 0.351562 L 2835.640625 2835 L 1 2835 L 1 0.351562 "/>
<path fill-rule="evenodd" fill="rgb(0%, 0%, 0%)" fill-opacity="1" d="M 1299.511719 2094.363281 C 1387.160156 2106.894531 1435.480469 2105.574219 1506.21875 2067.382812 C 1570.261719 2032.808594 1582.089844 1988.148438 1601.289062 1977.230469 C 1616.730469 1968.445312 1636.078125 1968.402344 1651.019531 1976.785156 C 1734.449219 2023.601562 1766.03125 2320.640625 1592.898438 2270.269531 C 1604.390625 2251.734375 1619.519531 2256.773438 1621.921875 2235.90625 C 1576 2237.230469 1381.421875 2354.664062 1299.511719 2094.363281 Z M 2370.089844 1727.640625 L 2370.089844 1764.070312 C 2368.320312 1775.800781 2364.820312 1787.648438 2359.328125 1799.511719 C 2351.390625 1816.628906 2355.25 1833.011719 2348.988281 1853.058594 C 2342.589844 1873.554688 2335.261719 1879.808594 2321.339844 1892.476562 C 2311.550781 1901.386719 2311.570312 1897.539062 2306.511719 1909.585938 C 2292.390625 1943.242188 2283.308594 1963.199219 2244.050781 1974.875 C 2227.449219 1979.8125 2234.769531 1976.714844 2225.359375 1988.113281 C 2204.949219 2012.808594 2166.011719 2018.882812 2126.109375 2006.355469 C 2111.230469 2001.679688 2096.019531 1991.753906 2085.308594 1983.285156 C 2072.089844 1972.855469 2064.988281 1962.507812 2057.109375 1947.613281 C 2029.269531 1948.230469 1987.171875 1961.863281 1946.578125 1908.035156 C 1923.710938 1877.71875 1915.730469 1832.71875 1926.160156 1787.929688 C 1908.441406 1776.058594 1905.199219 1752.171875 1893.910156 1737.148438 C 1890.328125 1732.390625 1893.710938 1735.441406 1886.960938 1731.320312 C 1853.558594 1710.910156 1744.628906 1660.691406 1721.761719 1660.179688 C 1718.011719 1674.238281 1696.191406 1697.820312 1687.628906 1712.269531 C 1622.738281 1821.828125 1656.101562 1787.230469 1629.148438 1902.898438 C 1643.050781 1896.226562 1666.828125 1890.042969 1684.878906 1891.839844 C 1706 1893.9375 1725.628906 1903.054688 1738.351562 1900.5 C 1821.230469 1883.855469 1854.398438 1954.382812 1873.21875 2026.128906 C 1883.328125 2064.691406 1866.058594 2058.085938 1872.550781 2074.308594 C 1887.519531 2111.664062 1909.539062 2124.980469 1928.570312 2219.863281 C 1937.03125 2262.039062 1940.128906 2297.714844 1928.800781 2339.882812 C 1908.730469 2414.605469 1858.160156 2406.4375 1835.238281 2415.597656 C 1819.011719 2422.082031 1813.441406 2440.390625 1771.691406 2451.046875 C 1763.5 2453.136719 1755.480469 2454.578125 1747.660156 2455.414062 L 1715 2455.414062 C 1640.058594 2447.132812 1588.488281 2381.863281 1578.058594 2314.882812 C 1574.988281 2295.1875 1570.75 2279.628906 1545.601562 2285.230469 C 1395.570312 2318.628906 1313.769531 2231.664062 1268.738281 2106.8125 C 1258.789062 2079.210938 1263.351562 2083.832031 1237.359375 2071.125 C 1191.300781 2048.605469 1185.941406 2032.273438 1159.671875 2014.679688 C 1147.960938 2022.519531 1134.449219 2030.742188 1121.320312 2037.015625 C 1093.609375 2050.246094 1108.441406 2045.527344 1093.160156 2066.339844 C 1080.480469 2083.609375 1062.039062 2095.65625 1040.109375 2099.519531 C 1007.121094 2105.324219 1025.300781 2106.5625 1003.300781 2123.390625 C 997.5625 2127.78125 993.734375 2130.9375 986.214844 2135.050781 C 958.910156 2149.988281 933.261719 2149.351562 922.355469 2157.421875 C 902.929688 2171.789062 891.972656 2181.472656 864.625 2185.964844 C 796.621094 2197.132812 751.335938 2144.601562 725.261719 2094.585938 C 718.617188 2081.839844 712.503906 2067.414062 707.277344 2051.886719 C 701.304688 2034.128906 701.125 2021.464844 697.09375 2004.582031 C 691.316406 1980.386719 598.386719 1895.734375 597.574219 1757.800781 L 597.574219 1752.519531 C 598.359375 1662.988281 629.800781 1657.710938 648.5625 1631.320312 C 668.996094 1602.570312 675.996094 1574.640625 742.136719 1549.238281 C 798.546875 1527.578125 876.25 1536.460938 925.210938 1572.070312 C 950.070312 1590.148438 963.285156 1607.519531 977.625 1634.628906 C 998.308594 1634.171875 1001.890625 1633.058594 1022.339844 1637.820312 C 1022.789062 1617.351562 1040.21875 1572.460938 1047.890625 1557.980469 C 983.558594 1557.980469 942.398438 1553.488281 911.878906 1508.75 C 884.105469 1468.039062 901.957031 1439.960938 897.78125 1423.839844 C 893.8125 1408.519531 862.035156 1397.519531 868.660156 1358.941406 C 874.117188 1327.148438 857.390625 1339.558594 843.78125 1295.800781 C 828.53125 1246.78125 846.605469 1188.339844 874.085938 1147.839844 C 893.644531 1119.011719 910.382812 1103.851562 935.332031 1081.339844 C 1007.410156 1016.300781 1138.199219 992.238281 1203.519531 1079.78125 C 1226.609375 1110.730469 1229.929688 1128.730469 1229.929688 1181.121094 C 1246.359375 1185.5 1252.929688 1203.28125 1256.609375 1221.730469 C 1269.738281 1287.488281 1199.101562 1318.660156 1185.21875 1337.609375 C 1201.859375 1337.609375 1204.691406 1335.601562 1217.328125 1334.589844 C 1227.640625 1333.761719 1238.238281 1335.101562 1248.628906 1333.949219 C 1259.070312 1332.789062 1265.449219 1329.988281 1280.789062 1331.320312 C 1293.320312 1332.398438 1293.808594 1334.421875 1309.769531 1334.421875 C 1296.488281 1309.308594 1278.140625 1290.5 1271.570312 1260.839844 C 1267.558594 1242.730469 1268.898438 1231.140625 1268.378906 1209.730469 C 1267.820312 1186.871094 1263 1189.878906 1265.058594 1165.148438 C 1245.179688 1163.488281 1234.679688 1146.558594 1240.359375 1121.300781 C 1243.53125 1107.21875 1249.789062 1111.738281 1243.011719 1094.921875 C 1239.800781 1086.960938 1235.871094 1083.019531 1232.640625 1073.019531 C 1214.730469 1017.558594 1236.03125 957.480469 1277.761719 925.539062 C 1321.21875 892.269531 1385.75 892.019531 1431.140625 916.039062 C 1433.738281 906.261719 1438.949219 901.089844 1443.910156 893.679688 L 1424.738281 868.140625 C 1382.570312 804.378906 1334.710938 723.988281 1371.421875 645.53125 C 1381.359375 624.269531 1393.730469 612.390625 1412.511719 600.390625 C 1475.609375 560.058594 1558.96875 601.609375 1609.980469 628.601562 C 1624.699219 606.628906 1662.878906 581.960938 1686.761719 568.039062 C 1748.21875 532.230469 1842.511719 530.351562 1901.988281 563.351562 C 2018.761719 628.121094 2054.878906 734.601562 2074.53125 863.480469 C 2080.058594 899.75 2079.96875 951.128906 2074.53125 987.761719 C 2071.078125 1010.960938 2068.039062 1024.28125 2063.488281 1043.789062 C 2192.71875 1130.320312 2121.949219 1278.449219 2063.488281 1283.320312 C 2063.488281 1334.96875 2036.800781 1373.191406 2006.480469 1395.570312 C 1968.128906 1423.859375 1922.121094 1427.761719 1875.058594 1423.839844 C 1875.058594 1436.449219 1874.058594 1436.800781 1871.871094 1446.199219 C 1894.179688 1456.898438 1925.5 1465.769531 1948.53125 1474.929688 L 2054.230469 1522.53125 C 2070.421875 1525.320312 2087.960938 1520.769531 2103.769531 1524.089844 C 2130.410156 1529.691406 2153.460938 1545.648438 2159.308594 1570.75 C 2255.800781 1570.75 2357.230469 1641.621094 2370.089844 1727.640625 Z M 1622.109375 1943.695312 C 1656.980469 1923.59375 1685.550781 1905.109375 1729.480469 1936.742188 C 1778.179688 1971.804688 1853.179688 2162.578125 1861.308594 2236.046875 C 1888.300781 2479.988281 1624.519531 2483.167969 1607.28125 2304.464844 C 1663.871094 2306.574219 1690.148438 2293.65625 1714.238281 2259.421875 C 1760.25 2194.070312 1745.058594 2073.902344 1710.410156 2013.199219 C 1681.460938 1962.46875 1666.070312 1958.488281 1632.121094 1948.222656 C 1621.800781 1945.101562 1629.519531 1949.746094 1622.109375 1943.695312 Z M 1860.578125 2380.480469 C 1899.929688 2302.246094 1883.828125 2208.070312 1853.808594 2128.535156 C 1836.140625 2081.738281 1806.730469 2013.664062 1781.628906 1970.8125 C 1767.828125 1947.253906 1752.761719 1935.492188 1751.53125 1926.972656 C 1812.191406 1921.246094 1839.339844 1994.003906 1847.339844 2043.425781 C 1842.089844 2047.960938 1840.539062 2048.597656 1834.171875 2052.488281 L 1874.640625 2126.9375 C 1909.21875 2198.796875 1936.050781 2362.621094 1860.578125 2380.480469 Z M 647.054688 1702.910156 C 657.957031 1698.441406 686.238281 1662.769531 740.058594 1696.539062 C 765.585938 1712.550781 784.875 1732.691406 801.605469 1762.730469 C 829.519531 1812.839844 848.179688 1894.925781 855.113281 1960.574219 C 857.769531 1985.734375 906.875 2159.414062 827.621094 2153.027344 C 780.414062 2149.222656 725.984375 2059.996094 724.640625 2001.867188 C 732.761719 2001.003906 836.636719 1991.105469 844.910156 1985.9375 C 819.925781 1966.976562 746.910156 1979.664062 718.933594 1989.378906 C 680.820312 1948.9375 623.109375 1831.25 622.527344 1752.859375 C 621.519531 1617.089844 736.324219 1610.089844 800.171875 1671.539062 C 815.53125 1686.328125 825.1875 1695.140625 838.34375 1716.410156 C 896.039062 1809.710938 897.851562 1946.378906 908.71875 1978.234375 C 927.640625 2033.707031 944.835938 2151.90625 866.941406 2157.175781 C 901.316406 2125.429688 896.894531 2047.484375 879.042969 1998.21875 C 867.796875 1967.1875 859.835938 1688.46875 714.796875 1667.921875 C 679.351562 1662.898438 652.359375 1672.199219 647.054688 1702.910156 Z M 1023.269531 1947.613281 C 1023.269531 2024.226562 1021.511719 2111.539062 940.441406 2122.125 C 945.347656 2072.910156 947.8125 2051.066406 934.0625 1997.4375 C 921.851562 1949.8125 925.835938 1994.507812 918.105469 1923.605469 C 912.496094 1872.191406 902.609375 1822.660156 886.898438 1776.46875 C 877.011719 1747.398438 861.863281 1712.839844 843.597656 1688.820312 C 835.28125 1677.878906 831.253906 1675.050781 822.304688 1665.410156 C 791.367188 1632.070312 755.257812 1614.921875 693.941406 1616.289062 C 711.453125 1584.171875 773.9375 1560.539062 829.007812 1566.660156 C 887.539062 1573.148438 923.984375 1602.191406 948.191406 1638.53125 C 995.378906 1709.378906 1023.269531 1844.859375 1023.269531 1947.613281 Z M 1424.828125 1531.421875 C 1499.558594 1505.53125 1509.171875 1612.828125 1436.511719 1636.859375 C 1363.890625 1660.871094 1352.730469 1556.398438 1424.828125 1531.421875 Z M 1932.550781 1760.03125 C 1930.03125 1757.761719 1930.289062 1758.421875 1927.53125 1754.808594 C 1919.691406 1744.558594 1916.878906 1727.308594 1916.800781 1714.511719 C 1916.691406 1696.960938 1921.621094 1679.148438 1927.761719 1664.96875 C 1939.871094 1637.03125 1959.199219 1611.300781 1976.171875 1595.210938 C 2010.78125 1562.398438 2090.730469 1513.921875 2136.210938 1571 C 2121.179688 1584.300781 2107.351562 1577.960938 2098.398438 1600.699219 C 2139.308594 1596.660156 2150.289062 1588.351562 2196.160156 1597.679688 C 2279.511719 1614.640625 2359.378906 1693.089844 2340.820312 1765.011719 C 2330.699219 1755.320312 2333.179688 1751.300781 2318.320312 1746.339844 C 2322.539062 1783.550781 2350.5 1817.808594 2311.878906 1863.613281 C 2301.808594 1846.101562 2307.128906 1828.519531 2287.050781 1815.519531 C 2280.03125 1832.050781 2300.488281 1926.765625 2242.878906 1944.15625 C 2243.628906 1923.21875 2242.878906 1894.335938 2221.878906 1885.46875 C 2217.070312 1932.511719 2221.808594 1977.421875 2174.828125 1985.917969 C 2133.371094 1993.410156 2088.03125 1957.621094 2079 1934.320312 L 2088.941406 1925.492188 C 2103.78125 1929.753906 2090.199219 1926.710938 2096.808594 1930.800781 C 2100.398438 1933.023438 2102.03125 1940.265625 2121.351562 1928.449219 C 2114.140625 1897.992188 2082 1878.40625 2053.910156 1865.863281 C 2048.039062 1871.875 2046.429688 1877.199219 2044.769531 1886.933594 C 2054.929688 1894.296875 2063.101562 1896.78125 2072.308594 1903.335938 C 2034.671875 1940.320312 1900.859375 1909.707031 1966.03125 1744.738281 C 1977.640625 1715.359375 1999.941406 1684.230469 2002.058594 1676.371094 C 1968.191406 1676.800781 1946.078125 1738.46875 1932.550781 1760.03125 Z M 1585.269531 1710.289062 C 1575.050781 1686.03125 1567.519531 1654.71875 1557.988281 1629.070312 C 1550.390625 1608.628906 1548.160156 1609.648438 1558.558594 1592.929688 C 1587.460938 1546.488281 1641.359375 1480.550781 1688.308594 1454.21875 C 1721.960938 1435.359375 1737.039062 1440.429688 1772.921875 1449.328125 C 1800.761719 1456.230469 1830.53125 1465.25 1856.839844 1474.011719 C 1899.960938 1488.371094 2001.351562 1531.910156 2010.71875 1534.578125 C 2006.761719 1539.050781 2010.058594 1535.890625 2004.738281 1540.230469 C 2003.910156 1540.898438 1999.398438 1544.03125 1998.71875 1544.46875 C 1985.640625 1553.109375 1980.898438 1554.320312 1969.160156 1565.839844 C 1958.769531 1576.03125 1944.980469 1589.121094 1935.441406 1602.359375 C 1917.820312 1626.800781 1899.011719 1661.050781 1894.820312 1700 C 1861.769531 1689.449219 1726.320312 1611.289062 1657.089844 1608.441406 L 1650.929688 1635.570312 L 1691.890625 1648.011719 C 1672.289062 1677.5 1679.851562 1668.640625 1643.28125 1683.871094 C 1623.128906 1692.261719 1603.988281 1702.140625 1585.269531 1710.289062 Z M 1089.410156 1553.121094 C 1160.359375 1598.671875 1205.691406 1537.460938 1257.03125 1492.390625 C 1264.21875 1486.070312 1267.191406 1481.230469 1274.28125 1474.671875 C 1306.121094 1445.199219 1310.890625 1440.921875 1331.96875 1449.398438 C 1363.730469 1462.199219 1390.578125 1477.96875 1418.53125 1490.5 L 1377.761719 1523.738281 C 1336.820312 1562.148438 1313.070312 1622.589844 1347.011719 1674.050781 C 1377.640625 1720.5 1466.308594 1721.980469 1516.820312 1656.46875 L 1531.621094 1638.828125 C 1531.878906 1637.75 1532.730469 1637.640625 1533.339844 1637.109375 C 1544.140625 1653.109375 1564.308594 1720.808594 1568.28125 1744.171875 L 1651.140625 1707.828125 C 1642.578125 1729.96875 1618.070312 1762.558594 1612.28125 1786.589844 C 1605.230469 1815.839844 1607.011719 1855.492188 1598.140625 1891.230469 C 1551.03125 2081.097656 1337.800781 2124.769531 1196.019531 2003.9375 C 1187.320312 1996.523438 1172.871094 1981.660156 1166.058594 1977.296875 C 1143.019531 1988.367188 1119.339844 2002.496094 1092.949219 2015.023438 C 1067.550781 2027.082031 1083.5 2024.304688 1069 2045.34375 C 1062.359375 2054.976562 1052.710938 2064.085938 1035.941406 2065.792969 C 1054.871094 1969.878906 1042.339844 1850.96875 1019.828125 1755.429688 C 1012.210938 1723.050781 1000.960938 1696.300781 992.664062 1666.480469 C 1042.769531 1668.558594 1047.679688 1708.5 1068.320312 1717.730469 L 1066.171875 1685.199219 C 1102.121094 1668.960938 1155.648438 1617.011719 1246.351562 1662.839844 C 1319.050781 1699.570312 1331.75 1749.21875 1359.21875 1783.121094 C 1369.28125 1776.410156 1374.070312 1778.589844 1383.269531 1768.761719 C 1365.109375 1720.839844 1306.578125 1656.449219 1253.898438 1633.121094 C 1144.640625 1584.75 1083.429688 1646.679688 1050.101562 1659.859375 C 1050.398438 1626.890625 1070.480469 1569.519531 1089.410156 1553.121094 Z M 1430.539062 1510.53125 C 1433.910156 1507.25 1430.191406 1510.261719 1436.078125 1505.589844 C 1481.359375 1469.710938 1518.828125 1479.421875 1545.300781 1473.941406 C 1621.808594 1458.101562 1587.898438 1441.5 1665.75 1442.210938 L 1662.140625 1446.261719 C 1661.621094 1446.78125 1660.910156 1447.558594 1660.320312 1448.109375 L 1641.628906 1461.898438 C 1618.621094 1480.878906 1600.550781 1498.511719 1582.421875 1520.890625 C 1541.078125 1571.890625 1551.140625 1558.761719 1516.410156 1614.550781 C 1455.050781 1713.128906 1340.460938 1701.089844 1355.691406 1596.308594 C 1361.851562 1611.210938 1360.050781 1621.988281 1370.25 1634.839844 C 1377.199219 1643.589844 1388.738281 1652.769531 1403.421875 1655.800781 C 1501.789062 1676.101562 1557.640625 1506.011719 1430.539062 1510.53125 Z M 1203.691406 1409.378906 C 1271.738281 1397.128906 1217.449219 1487.339844 1159.039062 1500.21875 C 1083.671875 1516.820312 1138.210938 1421.171875 1203.691406 1409.378906 Z M 1338.480469 1423.550781 C 1352.238281 1417.070312 1362.050781 1407.191406 1379.769531 1402.109375 C 1412.910156 1454.460938 1441.339844 1456.109375 1459.921875 1471.621094 C 1442.5 1477.871094 1444.238281 1478.96875 1428.019531 1468.589844 C 1404.078125 1453.28125 1350.011719 1434.710938 1338.480469 1423.550781 Z M 1782.238281 1420.851562 C 1788.460938 1415.308594 1807.320312 1403.429688 1814.378906 1403.339844 C 1817.871094 1403.289062 1841.828125 1414.46875 1846.890625 1416.789062 L 1843.941406 1434.320312 C 1829.550781 1437.898438 1799.210938 1426.511719 1782.238281 1420.851562 Z M 1238.578125 1394.878906 C 1261.628906 1387.621094 1280.550781 1378.839844 1306.328125 1372.648438 C 1358.890625 1360.03125 1347.898438 1370.171875 1368.980469 1384.078125 C 1355.449219 1392.929688 1341.789062 1398.691406 1328.351562 1407.28125 C 1273.511719 1442.320312 1189.640625 1529.988281 1157.800781 1540.28125 C 1119.441406 1552.679688 1084.871094 1527.949219 1106.28125 1495.460938 C 1118.339844 1514.671875 1126.769531 1523.789062 1158.371094 1517.988281 C 1193.25 1511.589844 1232.070312 1481.25 1245.601562 1452.199219 C 1249.648438 1443.5 1253.578125 1432.789062 1252.410156 1420.828125 C 1250.738281 1403.871094 1244.601562 1406.480469 1238.578125 1394.878906 Z M 927.699219 1437.820312 C 992.757812 1458.269531 1055.410156 1454.28125 1115.28125 1427.300781 C 1196.851562 1390.539062 1143.050781 1369.320312 1215.820312 1361.921875 C 1233 1360.171875 1250.578125 1358.289062 1267.738281 1360.429688 C 1251.769531 1369.488281 1225.640625 1377.371094 1206.359375 1387.371094 C 1182.550781 1399.730469 1166.808594 1400.921875 1147.011719 1417.558594 C 1124.339844 1436.589844 1085.691406 1475 1078.5 1505.628906 C 1076.640625 1513.570312 1076.890625 1517.640625 1073.441406 1523.289062 C 1037.511719 1528.859375 1000.429688 1532.949219 967.511719 1517.070312 C 942.773438 1505.128906 918.800781 1477.78125 927.699219 1437.820312 Z M 1185.21875 1337.609375 Z M 1456.671875 1319.148438 C 1476.949219 1318.429688 1495.488281 1316.179688 1514.679688 1312.421875 C 1530.28125 1309.371094 1548.070312 1302.070312 1560.96875 1300.238281 C 1552.460938 1335.621094 1535.019531 1375.351562 1504.21875 1382.46875 C 1479.390625 1388.21875 1420.570312 1368.308594 1456.671875 1319.148438 Z M 1413.28125 1281.429688 C 1479.96875 1277.710938 1503.75 1279.898438 1565.640625 1260.578125 L 1564.859375 1277.660156 C 1540.980469 1290.441406 1422.359375 1326.75 1413.28125 1281.429688 Z M 1789.460938 1200.28125 C 1733.121094 1149.589844 1840.128906 1149.980469 1869.558594 1140.46875 C 1886.449219 1135.011719 1893.601562 1127.820312 1906.621094 1122.589844 L 1917.988281 1184.308594 C 1899.699219 1196.050781 1887.699219 1200.589844 1872.25 1213.488281 C 1854.140625 1228.589844 1808.761719 1281.519531 1782.191406 1251.691406 C 1765.941406 1233.441406 1783.050781 1212.511719 1789.460938 1200.28125 Z M 976.351562 1372.738281 C 968.875 1365.109375 920.8125 1355.121094 901.171875 1337.359375 C 823.136719 1266.78125 881.332031 1166.710938 938.980469 1113.679688 C 972.878906 1082.488281 1030.839844 1044.410156 1098.050781 1051.199219 C 1155.550781 1057.011719 1204.148438 1105.179688 1200.210938 1166.488281 L 1156.988281 1168.320312 C 1152.710938 1142 1130.710938 1099.390625 1100.980469 1094.421875 C 1107.539062 1121.738281 1130.839844 1138.210938 1134.371094 1177.660156 C 1112.96875 1184.480469 1100.429688 1197.621094 1086.210938 1202.738281 C 1069.550781 1174.160156 1063.039062 1141.441406 1030.390625 1136.398438 C 1033.398438 1154.089844 1054.011719 1179.539062 1061.359375 1206.03125 C 1071.519531 1242.691406 1051.480469 1213.589844 1046.890625 1279.488281 C 1046 1292.148438 1029.210938 1291.058594 1018.441406 1287.921875 C 1011.179688 1274.050781 993.609375 1197.910156 952.851562 1197.71875 C 953.828125 1207.828125 972.925781 1237.359375 979.144531 1249.921875 C 1016.429688 1325.230469 968.929688 1342.421875 935.980469 1318.589844 C 921.621094 1308.21875 908.546875 1285.019531 894.589844 1279.359375 C 883.558594 1306.941406 925.359375 1341.160156 944.273438 1348.71875 C 995.507812 1369.179688 1009.089844 1320.910156 1015.949219 1309.140625 C 1027.5 1310.140625 1035.578125 1311.5 1047 1308.089844 C 1060.859375 1303.960938 1054.429688 1300.078125 1066.5 1306.039062 C 1081.890625 1313.640625 1082.859375 1321.449219 1108.378906 1320.589844 C 1141.738281 1319.449219 1174.238281 1302.828125 1178.480469 1277.179688 C 1156.289062 1280.710938 1140.078125 1297.941406 1108.488281 1297.671875 C 1079.679688 1297.421875 1061.570312 1277.191406 1076.140625 1250.960938 C 1091.019531 1224.179688 1147.039062 1187.488281 1194.859375 1193.109375 C 1239.78125 1198.390625 1244.441406 1260.910156 1194.441406 1298.890625 C 1133.820312 1344.941406 1099.949219 1338.480469 1078.128906 1355.519531 C 1098.671875 1368.890625 1141.359375 1356.679688 1161.371094 1348.679688 C 1159.308594 1391.460938 1082.171875 1418.589844 1031.449219 1423.410156 C 985.992188 1427.730469 883.574219 1420.679688 891.996094 1360.851562 C 909.585938 1369.789062 954.613281 1390.308594 976.351562 1372.738281 Z M 1513.390625 959.148438 C 1510.449219 953.21875 1511.238281 966.121094 1510.519531 950.96875 C 1509.800781 935.988281 1519.851562 938.679688 1525.648438 939.671875 C 1527.089844 951.808594 1525.378906 959.25 1513.390625 959.148438 Z M 1480.871094 959.101562 C 1477.378906 934.480469 1546.160156 868.988281 1538.949219 932.519531 C 1526.96875 923.550781 1520.441406 919.929688 1506.171875 933.621094 C 1479.191406 959.5 1499.570312 951.929688 1480.871094 959.101562 Z M 1472.648438 946.660156 C 1463.558594 937.960938 1466.601562 936.550781 1474.410156 924.328125 C 1488.671875 902.019531 1513.199219 872.539062 1544.648438 882.960938 L 1546.851562 907.640625 C 1528.429688 896.621094 1518.25 897.25 1501.289062 912.660156 C 1480.480469 931.558594 1482.53125 938.539062 1472.648438 946.660156 Z M 1795.621094 1130.421875 C 1775.449219 1134.589844 1757.011719 1145.269531 1752.101562 1163.558594 C 1743.359375 1196.140625 1767.261719 1193.980469 1758.289062 1217.191406 C 1740.691406 1262.691406 1777.511719 1304.679688 1822.589844 1282.078125 C 1854.648438 1266 1867.839844 1235.550781 1905.710938 1214.851562 C 2001.941406 1162.238281 2076.789062 1253.261719 2022.640625 1341.449219 C 2005.800781 1368.871094 1973.199219 1391.261719 1927.539062 1396.910156 C 1870.949219 1403.929688 1846.230469 1384.269531 1811.191406 1366.039062 C 1697.191406 1444.191406 1650.050781 1392.539062 1603.960938 1420.941406 C 1529.449219 1466.839844 1436.179688 1457.339844 1397.671875 1374.140625 C 1388.230469 1353.738281 1389.410156 1361.019531 1371.339844 1349.460938 C 1335.160156 1326.308594 1293.601562 1283.429688 1294.78125 1218.660156 L 1312.96875 1212.371094 C 1313.460938 1213.050781 1313.949219 1214.058594 1314.21875 1214.539062 C 1337.019531 1255.289062 1369.410156 1252.230469 1385.589844 1232.441406 C 1410.609375 1249.890625 1444.929688 1287.53125 1489.078125 1240.5 L 1516.660156 1256.621094 C 1458.78125 1267.328125 1415.769531 1268.398438 1363.988281 1251.738281 C 1363.570312 1267.398438 1365.910156 1268.421875 1376.449219 1274.070312 C 1391.660156 1282.230469 1386.03125 1274.019531 1392.53125 1293.089844 C 1407.621094 1337.351562 1437.851562 1404.039062 1494.921875 1401.421875 C 1550.640625 1398.859375 1578.320312 1327.199219 1582.269531 1277.011719 C 1585.648438 1234.03125 1582.921875 1256.390625 1596.511719 1226.121094 C 1665.941406 1246.808594 1693.988281 1205.859375 1686.578125 1136.269531 C 1661.359375 1140.46875 1638.320312 1152.390625 1607.941406 1156.5 C 1576.578125 1160.738281 1547.230469 1159.128906 1517.371094 1152.488281 C 1514.410156 1140.679688 1515.320312 1164.96875 1519.929688 1146.441406 C 1521.578125 1139.820312 1516.269531 1133.589844 1508.148438 1124.578125 C 1480.390625 1135.671875 1468.988281 1149.050781 1427.929688 1152.351562 C 1343.609375 1159.109375 1235.578125 1105.160156 1261.441406 1004.921875 C 1290.210938 893.410156 1450.859375 902.648438 1501.921875 1040.140625 L 1527.148438 1033.421875 L 1514.148438 998.171875 C 1530.871094 982.21875 1581.308594 908.910156 1554.171875 876.039062 C 1530.230469 847.019531 1490.019531 880.019531 1471.261719 905.121094 C 1464.980469 913.53125 1460.378906 925.460938 1450.429688 930.28125 C 1453.410156 921.570312 1519.691406 800.339844 1558.488281 830.050781 C 1571.898438 840.320312 1569.230469 863.519531 1578.050781 880.039062 C 1587.648438 870.238281 1591.539062 848.140625 1593.269531 831.488281 C 1621.570312 838.03125 1689.878906 861.890625 1705.671875 877.960938 C 1688.679688 886.71875 1663.539062 901.488281 1655.671875 918.261719 C 1726.511719 919.21875 1767.578125 895.339844 1774.058594 1013.851562 C 1781.03125 1011.351562 1779.570312 1011.828125 1784.25 1006.851562 C 1829.410156 1074.429688 1844.738281 1064.121094 1888.058594 1078.800781 C 1907.589844 1085.421875 1895.03125 1108.621094 1861.890625 1120.140625 C 1839.078125 1128.070312 1818.511719 1125.679688 1795.621094 1130.421875 Z M 1781.558594 788.078125 C 1781.039062 787.640625 1780.339844 786.941406 1780.089844 786.660156 C 1779.820312 786.371094 1778.949219 785.539062 1778.640625 785.179688 L 1775.890625 781.808594 C 1773.078125 778.109375 1774.128906 778.921875 1772.109375 775.800781 C 1766.050781 769.460938 1760.621094 763.058594 1754.699219 755.320312 C 1748.621094 747.359375 1742.960938 742.53125 1736.789062 734.960938 C 1724.109375 719.398438 1711.570312 709.238281 1699.878906 695.230469 C 1691.621094 690.269531 1684.660156 685.820312 1677.960938 676.578125 L 1671.71875 670.828125 C 1687.351562 649.5 1714.589844 625.589844 1750.808594 619.460938 C 1879.609375 597.660156 1905.050781 782.929688 1810.039062 830.140625 Z M 1459.878906 870.25 C 1444.578125 860.351562 1410.300781 796.410156 1400.671875 770.839844 C 1343.429688 618.96875 1468.691406 558.148438 1627.761719 677.929688 C 1690.28125 725.011719 1735.78125 773.230469 1781.460938 840.429688 C 1818.46875 894.878906 1865.121094 979.269531 1885.449219 1053.390625 C 1860.199219 1050.28125 1837.96875 1033.820312 1827.28125 1021.308594 C 1797.941406 986.96875 1798.75 984.238281 1805.679688 965.011719 C 1814.960938 939.261719 1816.558594 912.910156 1802.339844 889.789062 C 1789.371094 868.691406 1772.570312 868.910156 1741.488281 864.949219 C 1711.421875 795.980469 1589.339844 652.53125 1490.828125 652.839844 C 1497.539062 666.941406 1496.5 660.828125 1523.21875 673.941406 C 1534.421875 679.441406 1544.71875 685.769531 1553.910156 691.070312 C 1591.238281 712.578125 1630.800781 751.808594 1658.078125 784.898438 C 1666.738281 795.410156 1692.390625 828.171875 1698.558594 843.011719 C 1675.96875 837.210938 1647.398438 822.328125 1622.351562 814.128906 C 1603 807.800781 1598.519531 812.898438 1590.460938 794.980469 C 1558.988281 724.96875 1475.160156 856.949219 1459.878906 870.25 Z M 1632.378906 640.988281 C 1656.300781 623.058594 1673.460938 604.421875 1710.960938 589.078125 C 1744.558594 575.328125 1780.429688 567.589844 1820.421875 572.21875 C 1999.019531 592.890625 2055.769531 825.53125 2045.800781 989.101562 C 2044.421875 1011.730469 2030.738281 1088.671875 2035.761719 1102.960938 C 2046.300781 1092.410156 2047.21875 1087.578125 2053.699219 1073.199219 C 2104.699219 1096.199219 2139.691406 1212.328125 2060.300781 1254.390625 C 2044.589844 1235.070312 2037.199219 1173.488281 1941.929688 1178.859375 C 1934.460938 1119.160156 1913.328125 1052.03125 1894.078125 999.238281 C 1865.941406 922.019531 1830.460938 871.230469 1820.96875 845.78125 C 1840.320312 829.269531 1846.03125 831.039062 1860.628906 808.988281 C 1893.539062 759.261719 1893.710938 684.929688 1855.121094 639 C 1800.5 573.988281 1690.808594 601.691406 1658.898438 660.820312 C 1647.921875 656.789062 1637.558594 649.308594 1632.378906 640.988281 "/>
<path fill-rule="evenodd" fill="rgb(19.993591%, 38.989258%, 66.992188%)" fill-opacity="1" d="M 1089.410156 1553.121094 C 1070.480469 1569.519531 1050.398438 1626.890625 1050.101562 1659.859375 C 1083.429688 1646.679688 1144.640625 1584.75 1253.898438 1633.121094 C 1306.578125 1656.449219 1365.109375 1720.839844 1383.269531 1768.761719 C 1374.070312 1778.589844 1369.28125 1776.410156 1359.21875 1783.121094 C 1331.75 1749.21875 1319.050781 1699.570312 1246.351562 1662.839844 C 1155.648438 1617.011719 1102.121094 1668.960938 1066.171875 1685.199219 L 1068.320312 1717.730469 C 1047.679688 1708.5 1042.769531 1668.558594 992.664062 1666.480469 C 1000.960938 1696.300781 1012.210938 1723.050781 1019.828125 1755.429688 C 1042.339844 1850.96875 1054.871094 1969.878906 1035.941406 2065.792969 C 1052.710938 2064.085938 1062.359375 2054.976562 1069 2045.34375 C 1083.5 2024.304688 1067.550781 2027.082031 1092.949219 2015.023438 C 1119.339844 2002.496094 1143.019531 1988.367188 1166.058594 1977.296875 C 1172.871094 1981.660156 1187.320312 1996.523438 1196.019531 2003.9375 C 1337.800781 2124.769531 1551.03125 2081.097656 1598.140625 1891.230469 C 1607.011719 1855.492188 1605.230469 1815.839844 1612.28125 1786.589844 C 1618.070312 1762.558594 1642.578125 1729.96875 1651.140625 1707.828125 L 1568.28125 1744.171875 C 1564.308594 1720.808594 1544.140625 1653.109375 1533.339844 1637.109375 C 1532.730469 1637.640625 1531.878906 1637.75 1531.621094 1638.828125 L 1516.820312 1656.46875 C 1466.308594 1721.980469 1377.640625 1720.5 1347.011719 1674.050781 C 1313.070312 1622.589844 1336.820312 1562.148438 1377.761719 1523.738281 L 1418.53125 1490.5 C 1390.578125 1477.96875 1363.730469 1462.199219 1331.96875 1449.398438 C 1310.890625 1440.921875 1306.121094 1445.199219 1274.28125 1474.671875 C 1267.191406 1481.230469 1264.21875 1486.070312 1257.03125 1492.390625 C 1205.691406 1537.460938 1160.359375 1598.671875 1089.410156 1553.121094 "/>
<path fill-rule="evenodd" fill="rgb(93.943787%, 81.054688%, 68.943787%)" fill-opacity="1" d="M 1857.210938 1332.941406 C 1842.371094 1277.410156 1969.441406 1224.679688 1983.878906 1297.570312 C 1960.941406 1291.359375 1955.511719 1274.210938 1922.191406 1285.128906 C 1919.160156 1295.039062 1943.550781 1311.921875 1922.75 1336.589844 C 1910.609375 1322.171875 1924.511719 1309.929688 1900.609375 1299.46875 C 1876.441406 1302.730469 1875.710938 1325.488281 1857.210938 1332.941406 Z M 1661.660156 940.808594 C 1775.691406 903.230469 1747.839844 1086.96875 1646.808594 1125.371094 C 1587.359375 1147.96875 1560.710938 1088.988281 1576.378906 1035.828125 C 1589.660156 990.78125 1621.21875 954.128906 1661.660156 940.808594 Z M 1450.429688 930.28125 C 1460.378906 925.460938 1464.980469 913.53125 1471.261719 905.121094 C 1490.019531 880.019531 1530.230469 847.019531 1554.171875 876.039062 C 1581.308594 908.910156 1530.871094 982.21875 1514.148438 998.171875 L 1527.148438 1033.421875 L 1501.921875 1040.140625 C 1450.859375 902.648438 1290.210938 893.410156 1261.441406 1004.921875 C 1235.578125 1105.160156 1343.609375 1159.109375 1427.929688 1152.351562 C 1468.988281 1149.050781 1480.390625 1135.671875 1508.148438 1124.578125 C 1516.269531 1133.589844 1521.578125 1139.820312 1519.929688 1146.441406 C 1515.320312 1164.96875 1514.410156 1140.679688 1517.371094 1152.488281 C 1547.230469 1159.128906 1576.578125 1160.738281 1607.941406 1156.5 C 1638.320312 1152.390625 1661.359375 1140.46875 1686.578125 1136.269531 C 1693.988281 1205.859375 1665.941406 1246.808594 1596.511719 1226.121094 C 1582.921875 1256.390625 1585.648438 1234.03125 1582.269531 1277.011719 C 1578.320312 1327.199219 1550.640625 1398.859375 1494.921875 1401.421875 C 1437.851562 1404.039062 1407.621094 1337.351562 1392.53125 1293.089844 C 1386.03125 1274.019531 1391.660156 1282.230469 1376.449219 1274.070312 C 1365.910156 1268.421875 1363.570312 1267.398438 1363.988281 1251.738281 C 1415.769531 1268.398438 1458.78125 1267.328125 1516.660156 1256.621094 L 1489.078125 1240.5 C 1444.929688 1287.53125 1410.609375 1249.890625 1385.589844 1232.441406 C 1369.410156 1252.230469 1337.019531 1255.289062 1314.21875 1214.539062 C 1313.949219 1214.058594 1313.460938 1213.050781 1312.96875 1212.371094 L 1294.78125 1218.660156 C 1293.601562 1283.429688 1335.160156 1326.308594 1371.339844 1349.460938 C 1389.410156 1361.019531 1388.230469 1353.738281 1397.671875 1374.140625 C 1436.179688 1457.339844 1529.449219 1466.839844 1603.960938 1420.941406 C 1650.050781 1392.539062 1697.191406 1444.191406 1811.191406 1366.039062 C 1846.230469 1384.269531 1870.949219 1403.929688 1927.539062 1396.910156 C 1973.199219 1391.261719 2005.800781 1368.871094 2022.640625 1341.449219 C 2076.789062 1253.261719 2001.941406 1162.238281 1905.710938 1214.851562 C 1867.839844 1235.550781 1854.648438 1266 1822.589844 1282.078125 C 1777.511719 1304.679688 1740.691406 1262.691406 1758.289062 1217.191406 C 1767.261719 1193.980469 1743.359375 1196.140625 1752.101562 1163.558594 C 1757.011719 1145.269531 1775.449219 1134.589844 1795.621094 1130.421875 C 1818.511719 1125.679688 1839.078125 1128.070312 1861.890625 1120.140625 C 1895.03125 1108.621094 1907.589844 1085.421875 1888.058594 1078.800781 C 1844.738281 1064.121094 1829.410156 1074.429688 1784.25 1006.851562 C 1779.570312 1011.828125 1781.03125 1011.351562 1774.058594 1013.851562 C 1767.578125 895.339844 1726.511719 919.21875 1655.671875 918.261719 C 1663.539062 901.488281 1688.679688 886.71875 1705.671875 877.960938 C 1689.878906 861.890625 1621.570312 838.03125 1593.269531 831.488281 C 1591.539062 848.140625 1587.648438 870.238281 1578.050781 880.039062 C 1569.230469 863.519531 1571.898438 840.320312 1558.488281 830.050781 C 1519.691406 800.339844 1453.410156 921.570312 1450.429688 930.28125 "/>
<path fill-rule="evenodd" fill="rgb(100%, 100%, 100%)" fill-opacity="1" d="M 2091.441406 1743.199219 C 2078.738281 1726.53125 2075.289062 1709.378906 2085.839844 1686.28125 C 2104.351562 1691.96875 2124.238281 1719.789062 2107.789062 1743.191406 Z M 2165.578125 1695.269531 C 2147.789062 1712.71875 2121.261719 1673.96875 2118.851562 1654.378906 C 2146.699219 1647.210938 2181.949219 1679.21875 2165.578125 1695.269531 Z M 2171.558594 1647.960938 C 2161.53125 1641.871094 2157.691406 1638.160156 2154.039062 1626 C 2155.441406 1623.929688 2167.050781 1621.878906 2172.058594 1621.820312 C 2220.878906 1621.179688 2215.109375 1674.410156 2171.558594 1647.960938 Z M 1932.550781 1760.03125 C 1946.078125 1738.46875 1968.191406 1676.800781 2002.058594 1676.371094 C 1999.941406 1684.230469 1977.640625 1715.359375 1966.03125 1744.738281 C 1900.859375 1909.707031 2034.671875 1940.320312 2072.308594 1903.335938 C 2063.101562 1896.78125 2054.929688 1894.296875 2044.769531 1886.933594 C 2046.429688 1877.199219 2048.039062 1871.875 2053.910156 1865.863281 C 2082 1878.40625 2114.140625 1897.992188 2121.351562 1928.449219 C 2102.03125 1940.265625 2100.398438 1933.023438 2096.808594 1930.800781 C 2090.199219 1926.710938 2103.78125 1929.753906 2088.941406 1925.492188 L 2079 1934.320312 C 2088.03125 1957.621094 2133.371094 1993.410156 2174.828125 1985.917969 C 2221.808594 1977.421875 2217.070312 1932.511719 2221.878906 1885.46875 C 2242.878906 1894.335938 2243.628906 1923.21875 2242.878906 1944.15625 C 2300.488281 1926.765625 2280.03125 1832.050781 2287.050781 1815.519531 C 2307.128906 1828.519531 2301.808594 1846.101562 2311.878906 1863.613281 C 2350.5 1817.808594 2322.539062 1783.550781 2318.320312 1746.339844 C 2333.179688 1751.300781 2330.699219 1755.320312 2340.820312 1765.011719 C 2359.378906 1693.089844 2279.511719 1614.640625 2196.160156 1597.679688 C 2150.289062 1588.351562 2139.308594 1596.660156 2098.398438 1600.699219 C 2107.351562 1577.960938 2121.179688 1584.300781 2136.210938 1571 C 2090.730469 1513.921875 2010.78125 1562.398438 1976.171875 1595.210938 C 1959.199219 1611.300781 1939.871094 1637.03125 1927.761719 1664.96875 C 1921.621094 1679.148438 1916.691406 1696.960938 1916.800781 1714.511719 C 1916.878906 1727.308594 1919.691406 1744.558594 1927.53125 1754.808594 C 1930.289062 1758.421875 1930.03125 1757.761719 1932.550781 1760.03125 "/>
<path fill-rule="evenodd" fill="rgb(78.90625%, 11.009216%, 15.989685%)" fill-opacity="1" d="M 1632.378906 640.988281 C 1637.558594 649.308594 1647.921875 656.789062 1658.898438 660.820312 C 1690.808594 601.691406 1800.5 573.988281 1855.121094 639 C 1893.710938 684.929688 1893.539062 759.261719 1860.628906 808.988281 C 1846.03125 831.039062 1840.320312 829.269531 1820.96875 845.78125 C 1830.460938 871.230469 1865.941406 922.019531 1894.078125 999.238281 C 1913.328125 1052.03125 1934.460938 1119.160156 1941.929688 1178.859375 C 2037.199219 1173.488281 2044.589844 1235.070312 2060.300781 1254.390625 C 2139.691406 1212.328125 2104.699219 1096.199219 2053.699219 1073.199219 C 2047.21875 1087.578125 2046.300781 1092.410156 2035.761719 1102.960938 C 2030.738281 1088.671875 2044.421875 1011.730469 2045.800781 989.101562 C 2055.769531 825.53125 1999.019531 592.890625 1820.421875 572.21875 C 1780.429688 567.589844 1744.558594 575.328125 1710.960938 589.078125 C 1673.460938 604.421875 1656.300781 623.058594 1632.378906 640.988281 "/>
<path fill-rule="evenodd" fill="rgb(90.039062%, 67.96875%, 41.992188%)" fill-opacity="1" d="M 647.054688 1702.910156 C 652.359375 1672.199219 679.351562 1662.898438 714.796875 1667.921875 C 859.835938 1688.46875 867.796875 1967.1875 879.042969 1998.21875 C 896.894531 2047.484375 901.316406 2125.429688 866.941406 2157.175781 C 944.835938 2151.90625 927.640625 2033.707031 908.71875 1978.234375 C 897.851562 1946.378906 896.039062 1809.710938 838.34375 1716.410156 C 825.1875 1695.140625 815.53125 1686.328125 800.171875 1671.539062 C 736.324219 1610.089844 621.519531 1617.089844 622.527344 1752.859375 C 623.109375 1831.25 680.820312 1948.9375 718.933594 1989.378906 C 746.910156 1979.664062 819.925781 1966.976562 844.910156 1985.9375 C 836.636719 1991.105469 732.761719 2001.003906 724.640625 2001.867188 C 725.984375 2059.996094 780.414062 2149.222656 827.621094 2153.027344 C 906.875 2159.414062 857.769531 1985.734375 855.113281 1960.574219 C 848.179688 1894.925781 829.519531 1812.839844 801.605469 1762.730469 C 784.875 1732.691406 765.585938 1712.550781 740.058594 1696.539062 C 686.238281 1662.769531 657.957031 1698.441406 647.054688 1702.910156 "/>
<path fill-rule="evenodd" fill="rgb(100%, 100%, 100%)" fill-opacity="1" d="M 976.351562 1372.738281 C 954.613281 1390.308594 909.585938 1369.789062 891.996094 1360.851562 C 883.574219 1420.679688 985.992188 1427.730469 1031.449219 1423.410156 C 1082.171875 1418.589844 1159.308594 1391.460938 1161.371094 1348.679688 C 1141.359375 1356.679688 1098.671875 1368.890625 1078.128906 1355.519531 C 1099.949219 1338.480469 1133.820312 1344.941406 1194.441406 1298.890625 C 1244.441406 1260.910156 1239.78125 1198.390625 1194.859375 1193.109375 C 1147.039062 1187.488281 1091.019531 1224.179688 1076.140625 1250.960938 C 1061.570312 1277.191406 1079.679688 1297.421875 1108.488281 1297.671875 C 1140.078125 1297.941406 1156.289062 1280.710938 1178.480469 1277.179688 C 1174.238281 1302.828125 1141.738281 1319.449219 1108.378906 1320.589844 C 1082.859375 1321.449219 1081.890625 1313.640625 1066.5 1306.039062 C 1054.429688 1300.078125 1060.859375 1303.960938 1047 1308.089844 C 1035.578125 1311.5 1027.5 1310.140625 1015.949219 1309.140625 C 1009.089844 1320.910156 995.507812 1369.179688 944.273438 1348.71875 C 925.359375 1341.160156 883.558594 1306.941406 894.589844 1279.359375 C 908.546875 1285.019531 921.621094 1308.21875 935.980469 1318.589844 C 968.929688 1342.421875 1016.429688 1325.230469 979.144531 1249.921875 C 972.925781 1237.359375 953.828125 1207.828125 952.851562 1197.71875 C 993.609375 1197.910156 1011.179688 1274.050781 1018.441406 1287.921875 C 1029.210938 1291.058594 1046 1292.148438 1046.890625 1279.488281 C 1051.480469 1213.589844 1071.519531 1242.691406 1061.359375 1206.03125 C 1054.011719 1179.539062 1033.398438 1154.089844 1030.390625 1136.398438 C 1063.039062 1141.441406 1069.550781 1174.160156 1086.210938 1202.738281 C 1100.429688 1197.621094 1112.96875 1184.480469 1134.371094 1177.660156 C 1130.839844 1138.210938 1107.539062 1121.738281 1100.980469 1094.421875 C 1130.710938 1099.390625 1152.710938 1142 1156.988281 1168.320312 L 1200.210938 1166.488281 C 1204.148438 1105.179688 1155.550781 1057.011719 1098.050781 1051.199219 C 1030.839844 1044.410156 972.878906 1082.488281 938.980469 1113.679688 C 881.332031 1166.710938 823.136719 1266.78125 901.171875 1337.359375 C 920.8125 1355.121094 968.875 1365.109375 976.351562 1372.738281 "/>
<path fill-rule="evenodd" fill="rgb(19.993591%, 38.989258%, 66.992188%)" fill-opacity="1" d="M 1299.511719 2094.363281 C 1381.421875 2354.664062 1576 2237.230469 1621.921875 2235.90625 C 1619.519531 2256.773438 1604.390625 2251.734375 1592.898438 2270.269531 C 1766.03125 2320.640625 1734.449219 2023.601562 1651.019531 1976.785156 C 1636.078125 1968.402344 1616.730469 1968.445312 1601.289062 1977.230469 C 1582.089844 1988.148438 1570.261719 2032.808594 1506.21875 2067.382812 C 1435.480469 2105.574219 1387.160156 2106.894531 1299.511719 2094.363281 "/>
<path fill-rule="evenodd" fill="rgb(78.90625%, 11.009216%, 15.989685%)" fill-opacity="1" d="M 1585.269531 1710.289062 C 1603.988281 1702.140625 1623.128906 1692.261719 1643.28125 1683.871094 C 1679.851562 1668.640625 1672.289062 1677.5 1691.890625 1648.011719 L 1650.929688 1635.570312 L 1657.089844 1608.441406 C 1726.320312 1611.289062 1861.769531 1689.449219 1894.820312 1700 C 1899.011719 1661.050781 1917.820312 1626.800781 1935.441406 1602.359375 C 1944.980469 1589.121094 1958.769531 1576.03125 1969.160156 1565.839844 C 1980.898438 1554.320312 1985.640625 1553.109375 1998.71875 1544.46875 C 1999.398438 1544.03125 2003.910156 1540.898438 2004.738281 1540.230469 C 2010.058594 1535.890625 2006.761719 1539.050781 2010.71875 1534.578125 C 2001.351562 1531.910156 1899.960938 1488.371094 1856.839844 1474.011719 C 1830.53125 1465.25 1800.761719 1456.230469 1772.921875 1449.328125 C 1737.039062 1440.429688 1721.960938 1435.359375 1688.308594 1454.21875 C 1641.359375 1480.550781 1587.460938 1546.488281 1558.558594 1592.929688 C 1548.160156 1609.648438 1550.390625 1608.628906 1557.988281 1629.070312 C 1567.519531 1654.71875 1575.050781 1686.03125 1585.269531 1710.289062 "/>
<path fill-rule="evenodd" fill="rgb(46.99707%, 30.004883%, 19.993591%)" fill-opacity="1" d="M 1632.121094 1948.222656 C 1666.070312 1958.488281 1681.460938 1962.46875 1710.410156 2013.199219 C 1745.058594 2073.902344 1760.25 2194.070312 1714.238281 2259.421875 C 1690.148438 2293.65625 1663.871094 2306.574219 1607.28125 2304.464844 C 1624.519531 2483.167969 1888.300781 2479.988281 1861.308594 2236.046875 C 1853.179688 2162.578125 1778.179688 1971.804688 1729.480469 1936.742188 C 1685.550781 1905.109375 1656.980469 1923.59375 1622.109375 1943.695312 C 1629.519531 1949.746094 1621.800781 1945.101562 1632.121094 1948.222656 "/>
<path fill-rule="evenodd" fill="rgb(46.99707%, 30.004883%, 19.993591%)" fill-opacity="1" d="M 1023.269531 1947.613281 C 1023.269531 1844.859375 995.378906 1709.378906 948.191406 1638.53125 C 923.984375 1602.191406 887.539062 1573.148438 829.007812 1566.660156 C 773.9375 1560.539062 711.453125 1584.171875 693.941406 1616.289062 C 755.257812 1614.921875 791.367188 1632.070312 822.304688 1665.410156 C 831.253906 1675.050781 835.28125 1677.878906 843.597656 1688.820312 C 861.863281 1712.839844 877.011719 1747.398438 886.898438 1776.46875 C 902.609375 1822.660156 912.496094 1872.191406 918.105469 1923.605469 C 925.835938 1994.507812 921.851562 1949.8125 934.0625 1997.4375 C 947.8125 2051.066406 945.347656 2072.910156 940.441406 2122.125 C 1021.511719 2111.539062 1023.269531 2024.226562 1023.269531 1947.613281 "/>
<path fill-rule="evenodd" fill="rgb(78.90625%, 11.009216%, 15.989685%)" fill-opacity="1" d="M 1459.878906 870.25 C 1475.160156 856.949219 1558.988281 724.96875 1590.460938 794.980469 C 1598.519531 812.898438 1603 807.800781 1622.351562 814.128906 C 1647.398438 822.328125 1675.96875 837.210938 1698.558594 843.011719 C 1692.390625 828.171875 1666.738281 795.410156 1658.078125 784.898438 C 1630.800781 751.808594 1591.238281 712.578125 1553.910156 691.070312 C 1544.71875 685.769531 1534.421875 679.441406 1523.21875 673.941406 C 1496.5 660.828125 1497.539062 666.941406 1490.828125 652.839844 C 1589.339844 652.53125 1711.421875 795.980469 1741.488281 864.949219 C 1772.570312 868.910156 1789.371094 868.691406 1802.339844 889.789062 C 1816.558594 912.910156 1814.960938 939.261719 1805.679688 965.011719 C 1798.75 984.238281 1797.941406 986.96875 1827.28125 1021.308594 C 1837.96875 1033.820312 1860.199219 1050.28125 1885.449219 1053.390625 C 1865.121094 979.269531 1818.46875 894.878906 1781.460938 840.429688 C 1735.78125 773.230469 1690.28125 725.011719 1627.761719 677.929688 C 1468.691406 558.148438 1343.429688 618.96875 1400.671875 770.839844 C 1410.300781 796.410156 1444.578125 860.351562 1459.878906 870.25 "/>
<path fill-rule="evenodd" fill="rgb(19.993591%, 38.989258%, 66.992188%)" fill-opacity="1" d="M 1430.539062 1510.53125 C 1557.640625 1506.011719 1501.789062 1676.101562 1403.421875 1655.800781 C 1388.738281 1652.769531 1377.199219 1643.589844 1370.25 1634.839844 C 1360.050781 1621.988281 1361.851562 1611.210938 1355.691406 1596.308594 C 1340.460938 1701.089844 1455.050781 1713.128906 1516.410156 1614.550781 C 1551.140625 1558.761719 1541.078125 1571.890625 1582.421875 1520.890625 C 1600.550781 1498.511719 1618.621094 1480.878906 1641.628906 1461.898438 L 1660.320312 1448.109375 C 1660.910156 1447.558594 1661.621094 1446.78125 1662.140625 1446.261719 L 1665.75 1442.210938 C 1587.898438 1441.5 1621.808594 1458.101562 1545.300781 1473.941406 C 1518.828125 1479.421875 1481.359375 1469.710938 1436.078125 1505.589844 C 1430.191406 1510.261719 1433.910156 1507.25 1430.539062 1510.53125 "/>
<path fill-rule="evenodd" fill="rgb(78.90625%, 11.009216%, 15.989685%)" fill-opacity="1" d="M 927.699219 1437.820312 C 918.800781 1477.78125 942.773438 1505.128906 967.511719 1517.070312 C 1000.429688 1532.949219 1037.511719 1528.859375 1073.441406 1523.289062 C 1076.890625 1517.640625 1076.640625 1513.570312 1078.5 1505.628906 C 1085.691406 1475 1124.339844 1436.589844 1147.011719 1417.558594 C 1166.808594 1400.921875 1182.550781 1399.730469 1206.359375 1387.371094 C 1225.640625 1377.371094 1251.769531 1369.488281 1267.738281 1360.429688 C 1250.578125 1358.289062 1233 1360.171875 1215.820312 1361.921875 C 1143.050781 1369.320312 1196.851562 1390.539062 1115.28125 1427.300781 C 1055.410156 1454.28125 992.757812 1458.269531 927.699219 1437.820312 "/>
<path fill-rule="evenodd" fill="rgb(0%, 0%, 0%)" fill-opacity="1" d="M 1677.628906 1052.609375 C 1672.058594 1037.609375 1677.25 1026.121094 1694.46875 1029.398438 C 1699.550781 1039.640625 1698.738281 1036.269531 1693.71875 1051.378906 Z M 1650.910156 1106.761719 C 1623.351562 1117.578125 1614.03125 1102.359375 1618.820312 1072.589844 C 1629.660156 1005.28125 1720.789062 946.179688 1715.300781 1022.699219 C 1706.25 1013.730469 1696.601562 1005.601562 1677.890625 1015.828125 C 1668.800781 1020.800781 1659.140625 1031.421875 1653.511719 1039.460938 C 1635.808594 1064.738281 1631.289062 1086.441406 1650.910156 1106.761719 Z M 1621.25 1112.808594 C 1584.351562 1114.898438 1570.53125 1053.980469 1616.351562 992.738281 C 1661.800781 931.988281 1726.878906 946.128906 1720.609375 995.238281 C 1675.011719 934.539062 1576.25 1075.429688 1621.25 1112.808594 Z M 1661.660156 940.808594 C 1621.21875 954.128906 1589.660156 990.78125 1576.378906 1035.828125 C 1560.710938 1088.988281 1587.359375 1147.96875 1646.808594 1125.371094 C 1747.839844 1086.96875 1775.691406 903.230469 1661.660156 940.808594 "/>
<path fill-rule="evenodd" fill="rgb(100%, 100%, 100%)" fill-opacity="1" d="M 1677.960938 676.578125 C 1688.710938 671.761719 1714.519531 648.921875 1728.710938 638.539062 C 1735.421875 633.628906 1738.519531 630.03125 1744.738281 631.03125 L 1749.378906 681.820312 L 1826.988281 650.839844 L 1815.679688 787 L 1781.558594 788.078125 L 1810.039062 830.140625 C 1905.050781 782.929688 1879.609375 597.660156 1750.808594 619.460938 C 1714.589844 625.589844 1687.351562 649.5 1671.71875 670.828125 L 1677.960938 676.578125 "/>
<path fill-rule="evenodd" fill="rgb(46.99707%, 30.004883%, 19.993591%)" fill-opacity="1" d="M 1789.460938 1200.28125 C 1783.050781 1212.511719 1765.941406 1233.441406 1782.191406 1251.691406 C 1808.761719 1281.519531 1854.140625 1228.589844 1872.25 1213.488281 C 1887.699219 1200.589844 1899.699219 1196.050781 1917.988281 1184.308594 L 1906.621094 1122.589844 C 1893.601562 1127.820312 1886.449219 1135.011719 1869.558594 1140.46875 C 1840.128906 1149.980469 1733.121094 1149.589844 1789.460938 1200.28125 "/>
<path fill-rule="evenodd" fill="rgb(90.039062%, 67.96875%, 41.992188%)" fill-opacity="1" d="M 1860.578125 2380.480469 C 1936.050781 2362.621094 1909.21875 2198.796875 1874.640625 2126.9375 L 1834.171875 2052.488281 C 1840.539062 2048.597656 1842.089844 2047.960938 1847.339844 2043.425781 C 1839.339844 1994.003906 1812.191406 1921.246094 1751.53125 1926.972656 C 1752.761719 1935.492188 1767.828125 1947.253906 1781.628906 1970.8125 C 1806.730469 2013.664062 1836.140625 2081.738281 1853.808594 2128.535156 C 1883.828125 2208.070312 1899.929688 2302.246094 1860.578125 2380.480469 "/>
<path fill-rule="evenodd" fill="rgb(96.09375%, 92.96875%, 32.00531%)" fill-opacity="1" d="M 1414.808594 1610.929688 C 1459.921875 1595.390625 1445.519531 1590.921875 1466.269531 1557.078125 C 1467.648438 1559.070312 1468.710938 1558.78125 1470.089844 1564.550781 C 1471.789062 1571.660156 1470.441406 1578.25 1467.949219 1585.148438 C 1462.890625 1599.191406 1452.679688 1608.21875 1438.5 1613.230469 C 1413.589844 1622.019531 1415.328125 1611.410156 1414.808594 1610.929688 Z M 1424.828125 1531.421875 C 1352.730469 1556.398438 1363.890625 1660.871094 1436.511719 1636.859375 C 1509.171875 1612.828125 1499.558594 1505.53125 1424.828125 1531.421875 "/>
<path fill-rule="evenodd" fill="rgb(19.993591%, 38.989258%, 66.992188%)" fill-opacity="1" d="M 1238.578125 1394.878906 C 1244.601562 1406.480469 1250.738281 1403.871094 1252.410156 1420.828125 C 1253.578125 1432.789062 1249.648438 1443.5 1245.601562 1452.199219 C 1232.070312 1481.25 1193.25 1511.589844 1158.371094 1517.988281 C 1126.769531 1523.789062 1118.339844 1514.671875 1106.28125 1495.460938 C 1084.871094 1527.949219 1119.441406 1552.679688 1157.800781 1540.28125 C 1189.640625 1529.988281 1273.511719 1442.320312 1328.351562 1407.28125 C 1341.789062 1398.691406 1355.449219 1392.929688 1368.980469 1384.078125 C 1347.898438 1370.171875 1358.890625 1360.03125 1306.328125 1372.648438 C 1280.550781 1378.839844 1261.628906 1387.621094 1238.578125 1394.878906 "/>
<path fill-rule="evenodd" fill="rgb(78.90625%, 11.009216%, 15.989685%)" fill-opacity="1" d="M 1677.960938 676.578125 C 1684.660156 685.820312 1691.621094 690.269531 1699.878906 695.230469 L 1727.820312 667.070312 L 1732.648438 711.519531 L 1792.359375 689.058594 L 1772.109375 775.800781 C 1774.128906 778.921875 1773.078125 778.109375 1775.890625 781.808594 L 1778.640625 785.179688 C 1778.949219 785.539062 1779.820312 786.371094 1780.089844 786.660156 C 1780.339844 786.941406 1781.039062 787.640625 1781.558594 788.078125 L 1815.679688 787 L 1826.988281 650.839844 L 1749.378906 681.820312 L 1744.738281 631.03125 C 1738.519531 630.03125 1735.421875 633.628906 1728.710938 638.539062 C 1714.519531 648.921875 1688.710938 671.761719 1677.960938 676.578125 "/>
<path fill-rule="evenodd" fill="rgb(78.90625%, 11.009216%, 15.989685%)" fill-opacity="1" d="M 1456.671875 1319.148438 C 1420.570312 1368.308594 1479.390625 1388.21875 1504.21875 1382.46875 C 1535.019531 1375.351562 1552.460938 1335.621094 1560.96875 1300.238281 C 1548.070312 1302.070312 1530.28125 1309.371094 1514.679688 1312.421875 C 1495.488281 1316.179688 1476.949219 1318.429688 1456.671875 1319.148438 "/>
<path fill-rule="evenodd" fill="rgb(100%, 100%, 100%)" fill-opacity="1" d="M 1621.25 1112.808594 C 1576.25 1075.429688 1675.011719 934.539062 1720.609375 995.238281 C 1726.878906 946.128906 1661.800781 931.988281 1616.351562 992.738281 C 1570.53125 1053.980469 1584.351562 1114.898438 1621.25 1112.808594 "/>
<path fill-rule="evenodd" fill="rgb(96.09375%, 92.96875%, 32.00531%)" fill-opacity="1" d="M 1156.488281 1484.699219 C 1162.070312 1476.558594 1158.628906 1480.160156 1171.828125 1474.421875 C 1201.039062 1461.699219 1195.519531 1448.511719 1211.078125 1436.960938 C 1211.878906 1466.578125 1186.75 1486.789062 1156.488281 1484.699219 Z M 1203.691406 1409.378906 C 1138.210938 1421.171875 1083.671875 1516.820312 1159.039062 1500.21875 C 1217.449219 1487.339844 1271.738281 1397.128906 1203.691406 1409.378906 "/>
<path fill-rule="evenodd" fill="rgb(100%, 100%, 100%)" fill-opacity="1" d="M 1699.878906 695.230469 C 1711.570312 709.238281 1724.109375 719.398438 1736.789062 734.960938 C 1742.960938 742.53125 1748.621094 747.359375 1754.699219 755.320312 C 1760.621094 763.058594 1766.050781 769.460938 1772.109375 775.800781 L 1792.359375 689.058594 L 1732.648438 711.519531 L 1727.820312 667.070312 L 1699.878906 695.230469 "/>
<path fill-rule="evenodd" fill="rgb(0%, 0%, 0%)" fill-opacity="1" d="M 1857.210938 1332.941406 C 1875.710938 1325.488281 1876.441406 1302.730469 1900.609375 1299.46875 C 1924.511719 1309.929688 1910.609375 1322.171875 1922.75 1336.589844 C 1943.550781 1311.921875 1919.160156 1295.039062 1922.191406 1285.128906 C 1955.511719 1274.210938 1960.941406 1291.359375 1983.878906 1297.570312 C 1969.441406 1224.679688 1842.371094 1277.410156 1857.210938 1332.941406 "/>
<path fill-rule="evenodd" fill="rgb(44.993591%, 75.976562%, 90.039062%)" fill-opacity="1" d="M 1650.910156 1106.761719 C 1631.289062 1086.441406 1635.808594 1064.738281 1653.511719 1039.460938 C 1659.140625 1031.421875 1668.800781 1020.800781 1677.890625 1015.828125 C 1696.601562 1005.601562 1706.25 1013.730469 1715.300781 1022.699219 C 1720.789062 946.179688 1629.660156 1005.28125 1618.820312 1072.589844 C 1614.03125 1102.359375 1623.351562 1117.578125 1650.910156 1106.761719 "/>
<path fill-rule="evenodd" fill="rgb(100%, 100%, 100%)" fill-opacity="1" d="M 1413.28125 1281.429688 C 1422.359375 1326.75 1540.980469 1290.441406 1564.859375 1277.660156 L 1565.640625 1260.578125 C 1503.75 1279.898438 1479.96875 1277.710938 1413.28125 1281.429688 "/>
<path fill-rule="evenodd" fill="rgb(78.90625%, 11.009216%, 15.989685%)" fill-opacity="1" d="M 1338.480469 1423.550781 C 1350.011719 1434.710938 1404.078125 1453.28125 1428.019531 1468.589844 C 1444.238281 1478.96875 1442.5 1477.871094 1459.921875 1471.621094 C 1441.339844 1456.109375 1412.910156 1454.460938 1379.769531 1402.109375 C 1362.050781 1407.191406 1352.238281 1417.070312 1338.480469 1423.550781 "/>
<path fill-rule="evenodd" fill="rgb(100%, 100%, 100%)" fill-opacity="1" d="M 1472.648438 946.660156 C 1482.53125 938.539062 1480.480469 931.558594 1501.289062 912.660156 C 1518.25 897.25 1528.429688 896.621094 1546.851562 907.640625 L 1544.648438 882.960938 C 1513.199219 872.539062 1488.671875 902.019531 1474.410156 924.328125 C 1466.601562 936.550781 1463.558594 937.960938 1472.648438 946.660156 "/>
<path fill-rule="evenodd" fill="rgb(0%, 0%, 0%)" fill-opacity="1" d="M 2118.851562 1654.378906 C 2121.261719 1673.96875 2147.789062 1712.71875 2165.578125 1695.269531 C 2181.949219 1679.21875 2146.699219 1647.210938 2118.851562 1654.378906 "/>
<path fill-rule="evenodd" fill="rgb(0%, 0%, 0%)" fill-opacity="1" d="M 2091.441406 1743.199219 L 2107.789062 1743.191406 C 2124.238281 1719.789062 2104.351562 1691.96875 2085.839844 1686.28125 C 2075.289062 1709.378906 2078.738281 1726.53125 2091.441406 1743.199219 "/>
<path fill-rule="evenodd" fill="rgb(46.99707%, 29.00238%, 19.993591%)" fill-opacity="1" d="M 1782.238281 1420.851562 C 1799.210938 1426.511719 1829.550781 1437.898438 1843.941406 1434.320312 L 1846.890625 1416.789062 C 1841.828125 1414.46875 1817.871094 1403.289062 1814.378906 1403.339844 C 1807.320312 1403.429688 1788.460938 1415.308594 1782.238281 1420.851562 "/>
<path fill-rule="evenodd" fill="rgb(0%, 0%, 0%)" fill-opacity="1" d="M 2154.039062 1626 C 2157.691406 1638.160156 2161.53125 1641.871094 2171.558594 1647.960938 C 2215.109375 1674.410156 2220.878906 1621.179688 2172.058594 1621.820312 C 2167.050781 1621.878906 2155.441406 1623.929688 2154.039062 1626 "/>
<path fill-rule="evenodd" fill="rgb(43.992615%, 75%, 88.084412%)" fill-opacity="1" d="M 1480.871094 959.101562 C 1499.570312 951.929688 1479.191406 959.5 1506.171875 933.621094 C 1520.441406 919.929688 1526.96875 923.550781 1538.949219 932.519531 C 1546.160156 868.988281 1477.378906 934.480469 1480.871094 959.101562 "/>
<path fill-rule="evenodd" fill="rgb(0%, 0%, 0%)" fill-opacity="1" d="M 1414.808594 1610.929688 C 1415.328125 1611.410156 1413.589844 1622.019531 1438.5 1613.230469 C 1452.679688 1608.21875 1462.890625 1599.191406 1467.949219 1585.148438 C 1470.441406 1578.25 1471.789062 1571.660156 1470.089844 1564.550781 C 1468.710938 1558.78125 1467.648438 1559.070312 1466.269531 1557.078125 C 1445.519531 1590.921875 1459.921875 1595.390625 1414.808594 1610.929688 "/>
<path fill-rule="evenodd" fill="rgb(0%, 0%, 0%)" fill-opacity="1" d="M 1156.488281 1484.699219 C 1186.75 1486.789062 1211.878906 1466.578125 1211.078125 1436.960938 C 1195.519531 1448.511719 1201.039062 1461.699219 1171.828125 1474.421875 C 1158.628906 1480.160156 1162.070312 1476.558594 1156.488281 1484.699219 "/>
<path fill-rule="evenodd" fill="rgb(100%, 100%, 100%)" fill-opacity="1" d="M 1677.628906 1052.609375 L 1693.71875 1051.378906 C 1698.738281 1036.269531 1699.550781 1039.640625 1694.46875 1029.398438 C 1677.25 1026.121094 1672.058594 1037.609375 1677.628906 1052.609375 "/>
<path fill-rule="evenodd" fill="rgb(100%, 100%, 100%)" fill-opacity="1" d="M 1513.390625 959.148438 C 1525.378906 959.25 1527.089844 951.808594 1525.648438 939.671875 C 1519.851562 938.679688 1509.800781 935.988281 1510.519531 950.96875 C 1511.238281 966.121094 1510.449219 953.21875 1513.390625 959.148438 "/>
</svg>
